<svg width="28" height="28" viewBox="0 0 28 28" fill="none" xmlns="http://www.w3.org/2000/svg">
<path fill-rule="evenodd" clip-rule="evenodd" d="M0.350098 3.14998C0.350098 2.57007 0.820197 2.09998 1.4001 2.09998H3.79858C5.10883 2.09998 6.28227 2.91106 6.74531 4.13677L7.29858 5.60122C7.31531 5.60041 7.33225 5.59999 7.34919 5.59998L23.8066 5.58598C26.0514 5.58407 27.5778 7.86392 26.7206 9.93872L24.0123 16.4947C23.694 17.265 23.0062 17.8206 22.1862 17.9697L13.1096 19.62C11.6136 19.892 10.1368 19.0565 9.59941 17.634L4.78082 4.87891C4.62647 4.47034 4.23533 4.19998 3.79858 4.19998H1.4001C0.820197 4.19998 0.350098 3.72988 0.350098 3.14998ZM8.09119 7.69935L11.5639 16.8919C11.743 17.3661 12.2353 17.6445 12.734 17.5539L21.8105 15.9036C21.9277 15.8823 22.0259 15.8029 22.0714 15.6929L24.7797 9.13687C25.0655 8.44534 24.5567 7.68535 23.8084 7.68598L8.09119 7.69935Z" fill="#262931"/>
<path d="M9.4501 25.9C10.6099 25.9 11.5501 24.9598 11.5501 23.8C11.5501 22.6402 10.6099 21.7 9.4501 21.7C8.2903 21.7 7.3501 22.6402 7.3501 23.8C7.3501 24.9598 8.2903 25.9 9.4501 25.9Z" fill="#262931"/>
<path d="M22.0502 25.9C23.21 25.9 24.1502 24.9598 24.1502 23.8C24.1502 22.6402 23.21 21.7 22.0502 21.7C20.8904 21.7 19.9502 22.6402 19.9502 23.8C19.9502 24.9598 20.8904 25.9 22.0502 25.9Z" fill="#262931"/>
</svg>
