<svg width="20" height="20" viewBox="0 0 20 20" fill="none" xmlns="http://www.w3.org/2000/svg">
<path fill-rule="evenodd" clip-rule="evenodd" d="M0.25 2.25C0.25 1.83579 0.585785 1.5 1 1.5H2.7132C3.6491 1.5 4.48727 2.07934 4.81801 2.95485L5.2132 4.00089C5.22515 4.00031 5.23725 4.00001 5.24935 4L17.0047 3.99001C18.6081 3.98864 19.6984 5.6171 19.0861 7.0991L17.1516 11.7819C16.9243 12.3321 16.4329 12.7291 15.8472 12.8356L9.36395 14.0143C8.29535 14.2086 7.2405 13.6118 6.85665 12.5957L3.4148 3.48495C3.30456 3.19311 3.02517 3 2.7132 3H1C0.585785 3 0.25 2.66421 0.25 2.25ZM5.77935 5.49955L8.25985 12.0656C8.3878 12.4044 8.73945 12.6032 9.09565 12.5385L15.5789 11.3597C15.6626 11.3445 15.7328 11.2878 15.7652 11.2092L17.6998 6.52635C17.9039 6.0324 17.5405 5.48955 17.006 5.49L5.77935 5.49955Z" fill="white"/>
<path d="M6.75 18.5C7.57843 18.5 8.25 17.8284 8.25 17C8.25 16.1716 7.57843 15.5 6.75 15.5C5.92157 15.5 5.25 16.1716 5.25 17C5.25 17.8284 5.92157 18.5 6.75 18.5Z" fill="white"/>
<path d="M15.75 18.5C16.5784 18.5 17.25 17.8284 17.25 17C17.25 16.1716 16.5784 15.5 15.75 15.5C14.9216 15.5 14.25 16.1716 14.25 17C14.25 17.8284 14.9216 18.5 15.75 18.5Z" fill="white"/>
</svg>
