<svg width="26" height="18" viewBox="0 0 26 18" fill="none" xmlns="http://www.w3.org/2000/svg">
<path d="M25.7856 8.9888L21.4159 4.4739C21.2725 4.32561 21.0749 4.24193 20.8686 4.24193H18.0763V0.955566C18.0763 0.534895 17.7352 0.193848 17.3146 0.193848H3.16667C2.746 0.193848 2.40495 0.534895 2.40495 0.955566V3.24143H1.82838C1.40771 3.24143 1.06666 3.58248 1.06666 4.00315C1.06666 4.42382 1.40771 4.76487 1.82838 4.76487H2.40495V6.28902H0.761719C0.341047 6.28902 0 6.63007 0 7.05074C0 7.47141 0.341047 7.81246 0.761719 7.81246H2.40495V14.8079C2.40495 15.2286 2.746 15.5696 3.16667 15.5696H4.78806C4.93573 16.0612 5.2035 16.5116 5.57664 16.8848C6.17089 17.4791 6.96099 17.8063 7.80137 17.8063C8.64175 17.8063 9.4318 17.4791 10.0261 16.8848C10.4037 16.5072 10.6646 16.0565 10.8098 15.578H18.0839C18.229 16.0565 18.49 16.5072 18.8676 16.8848C19.4618 17.4791 20.2519 17.8063 21.0923 17.8063C21.9327 17.8063 22.7227 17.4791 23.317 16.8848C23.6946 16.5072 23.9555 16.0565 24.1007 15.578H25.2383C25.659 15.578 26 15.237 26 14.8163V9.51856C26 9.32081 25.9231 9.13089 25.7856 8.9888ZM23.441 8.75684H18.0549V5.76536H20.5458L23.441 8.75684ZM3.92839 7.81241H7.89303C8.3137 7.81241 8.65475 7.47136 8.65475 7.05069C8.65475 6.63002 8.3137 6.28897 7.89303 6.28897H3.92839V4.76482H8.45178C8.87245 4.76482 9.2135 4.42377 9.2135 4.0031C9.2135 3.58243 8.87245 3.24138 8.45178 3.24138H3.92839V1.71723H8.45178H16.5528L16.5314 14.0545H10.8877C10.7722 13.4608 10.485 12.8941 10.0261 12.4351C9.43186 11.8408 8.64175 11.5136 7.80137 11.5136C6.96099 11.5136 6.17094 11.8408 5.57664 12.4351C5.12977 12.882 4.83397 13.4396 4.71468 14.0461H3.92839V7.81241ZM8.94888 15.8076C8.64236 16.1141 8.23479 16.2829 7.80137 16.2829C7.36795 16.2829 6.96038 16.1141 6.65387 15.8076C6.34735 15.501 6.17855 15.0935 6.17855 14.66C6.17855 14.2265 6.34735 13.8189 6.65387 13.5124C6.96038 13.2059 7.36795 13.0371 7.80137 13.0371C8.23479 13.0371 8.64236 13.2059 8.94888 13.5124C9.58161 14.1452 9.58161 15.1748 8.94888 15.8076ZM22.2397 15.8076C21.9332 16.1141 21.5256 16.2829 21.0922 16.2829C20.6588 16.2829 20.2512 16.1141 19.9447 15.8076C19.312 15.1748 19.312 14.1452 19.9447 13.5125C20.2512 13.2059 20.6588 13.0371 21.0922 13.0371C21.5256 13.0371 21.9332 13.2059 22.2397 13.5125C22.5462 13.819 22.715 14.2265 22.715 14.6601C22.715 15.0935 22.5462 15.501 22.2397 15.8076ZM24.1786 14.0545C24.063 13.4608 23.7759 12.8941 23.3169 12.4352C22.7227 11.8409 21.9326 11.5136 21.0922 11.5136C20.2518 11.5136 19.4618 11.8409 18.8675 12.4352C18.4628 12.8399 18.1925 13.3284 18.0549 13.8452V10.2803H24.4766V14.0545H24.1786Z" fill="#AE5096"/>
</svg>
