<svg width="24" height="21" viewBox="0 0 24 21" fill="none" xmlns="http://www.w3.org/2000/svg">
<path fill-rule="evenodd" clip-rule="evenodd" d="M1.98795 2.20535C3.11506 0.872718 4.75824 0.083374 6.75016 0.083374C8.08389 0.083374 9.36086 0.813649 10.3417 1.55515C10.9474 2.01291 11.5118 2.53057 12.0002 3.02679C12.4885 2.53057 13.053 2.01291 13.6586 1.55515C14.6395 0.813649 15.9164 0.083374 17.2502 0.083374C19.2777 0.083374 20.9207 0.959623 22.0319 2.3454C23.1236 3.70712 23.6668 5.50988 23.6668 7.37504C23.6668 9.05913 22.8369 10.6753 21.7928 12.0673C20.7328 13.4808 19.3449 14.8044 17.9971 15.9275C16.6431 17.0558 15.2948 18.0105 14.2879 18.6817C13.7834 19.018 13.3621 19.2848 13.0654 19.4686C12.917 19.5604 12.7996 19.6316 12.7184 19.6803C12.6776 19.7047 12.6461 19.7235 12.6242 19.7365L12.5985 19.7516L12.5914 19.7558L12.5892 19.7571C12.589 19.7572 12.588 19.7578 12.0002 18.75C11.4123 19.7578 11.412 19.7577 11.4118 19.7575L11.4089 19.7557L11.4015 19.7515L11.3759 19.7363C11.3538 19.7233 11.3222 19.7045 11.2815 19.68C11.2001 19.6311 11.0823 19.5597 10.9338 19.4674C10.6367 19.283 10.2149 19.0149 9.70988 18.6764C8.70212 18.0008 7.35255 17.0378 5.99746 15.8936C4.64814 14.7542 3.25948 13.4068 2.19926 11.9579C1.15209 10.5269 0.333496 8.87211 0.333496 7.14219C0.333496 5.27421 0.878773 3.51678 1.98795 2.20535ZM12.0002 18.75L11.4118 19.7575L12.0002 20.1007L12.588 19.7578L12.0002 18.75ZM12.0007 17.3828C12.2628 17.2186 12.6012 17.0019 12.9937 16.7402C13.9555 16.099 15.2322 15.1943 16.5033 14.1351C17.7804 13.0707 19.0175 11.8787 19.9263 10.6673C20.851 9.43409 21.3335 8.31596 21.3335 7.37504C21.3335 5.9406 20.9136 4.68086 20.2114 3.80498C19.5284 2.95315 18.5464 2.41671 17.2502 2.41671C16.7061 2.41671 15.9463 2.75081 15.0657 3.41648C14.2246 4.05225 13.4423 4.86073 12.8857 5.50965L12.0002 6.54193L11.1147 5.50965C10.558 4.86073 9.77568 4.05225 8.93468 3.41648C8.05408 2.75081 7.29419 2.41671 6.75016 2.41671C5.41825 2.41671 4.43643 2.92362 3.7695 3.71216C3.08464 4.52192 2.66683 5.71056 2.66683 7.14219C2.66683 8.15368 3.16074 9.32058 4.08231 10.58C4.99084 11.8217 6.22718 13.0336 7.50286 14.1108C8.77278 15.1832 10.0482 16.0941 11.0092 16.7382C11.4012 17.0011 11.7391 17.2183 12.0007 17.3828Z" fill="#262931"/>
</svg>
