<svg width="14" height="14" viewBox="0 0 14 14" fill="none" xmlns="http://www.w3.org/2000/svg">
<path d="M7.00004 14.0001C10.8599 14.0001 14.0001 10.8599 14.0001 7.00011C14.0001 3.14025 10.8599 0 7.00004 0C3.14022 0 0 3.14025 0 7.00011C0 10.8599 3.14022 14.0001 7.00004 14.0001ZM2.4361 10.4561C2.99076 10.2379 3.6891 10.0641 4.47404 9.94496C4.58061 10.5848 4.72206 11.1779 4.89642 11.7011C4.98776 11.9751 5.08394 12.217 5.18329 12.4319C4.08013 12.0619 3.12588 11.3647 2.4361 10.4561ZM1.27273 7.00011C1.27273 6.16244 1.45355 5.36622 1.77805 4.6484C2.4663 4.94304 3.33571 5.17098 4.31512 5.31815C4.26743 5.86165 4.24245 6.42556 4.24245 7.00011C4.24245 7.57462 4.26743 8.13857 4.31512 8.68203C3.33571 8.82924 2.46626 9.05719 1.77809 9.35182C1.45355 8.634 1.27273 7.83778 1.27273 7.00011ZM7.00004 1.27273C7.13707 1.27273 7.53645 1.62193 7.8963 2.7015C8.04419 3.14526 8.16582 3.64854 8.25966 4.19348C7.85056 4.22208 7.42869 4.23718 6.99987 4.23718C6.57117 4.23718 6.14943 4.22212 5.74041 4.19348C5.83425 3.64854 5.95589 3.1453 6.10382 2.70154C6.46366 1.62193 6.86301 1.27273 7.00004 1.27273ZM6.99987 5.50991C7.48465 5.50991 7.95989 5.49209 8.4202 5.45811C8.4627 5.95469 8.48489 6.47167 8.48489 7.00011C8.48489 7.52855 8.46271 8.04545 8.42024 8.54203C7.95993 8.50805 7.48478 8.49023 7.00004 8.49023C6.5153 8.49023 6.04014 8.50805 5.57988 8.54203C5.53737 8.04545 5.51518 7.52851 5.51518 7.00011C5.51518 6.47167 5.53737 5.95473 5.57988 5.45811C6.0401 5.49209 6.51521 5.50991 6.99987 5.50991ZM12.7273 7.00011C12.7273 7.83774 12.5465 8.63392 12.222 9.35174C11.5338 9.0571 10.6644 8.8292 9.68495 8.68203C9.73264 8.13857 9.75763 7.57467 9.75763 7.00011C9.75763 6.42552 9.73264 5.86161 9.68495 5.31811C10.6644 5.17094 11.5338 4.94295 12.2219 4.64827C12.5465 5.36614 12.7273 6.1624 12.7273 7.00011ZM7.00004 12.7274C6.86301 12.7274 6.46366 12.3782 6.10386 11.2986C5.95593 10.8548 5.8343 10.3516 5.74041 9.80666C6.14951 9.77802 6.57125 9.76296 7.00004 9.76296C7.42882 9.76296 7.85061 9.77802 8.25966 9.80666C8.16582 10.3516 8.04419 10.8549 7.8963 11.2986C7.53645 12.3782 7.13711 12.7274 7.00004 12.7274ZM8.81686 12.4319C8.91618 12.217 9.01236 11.9751 9.1037 11.7011C9.2781 11.1779 9.41955 10.5848 9.52612 9.94496C10.311 10.0641 11.0093 10.2379 11.564 10.456C10.8742 11.3646 9.92003 12.0619 8.81686 12.4319ZM11.5639 3.54401C11.0093 3.76215 10.311 3.93605 9.52607 4.05514C9.4195 3.41538 9.2781 2.8222 9.1037 2.29902C9.0124 2.025 8.91618 1.78314 8.81682 1.56822C9.91994 1.93824 10.8742 2.6354 11.5639 3.54401ZM5.18329 1.56826C5.08394 1.7831 4.9878 2.025 4.89642 2.29902C4.72206 2.82228 4.58061 3.41542 4.47404 4.05522C3.6891 3.93609 2.99076 3.76224 2.4361 3.54414C3.12583 2.63549 4.08009 1.9382 5.18329 1.56826Z" fill="white"/>
</svg>
