<svg width="18" height="16" viewBox="0 0 18 16" fill="none" xmlns="http://www.w3.org/2000/svg">
<path fill-rule="evenodd" clip-rule="evenodd" d="M1.84874 2.43236C2.65383 1.48047 3.82753 0.916656 5.25033 0.916656C6.20298 0.916656 7.11511 1.43828 7.81574 1.96792C8.24833 2.2949 8.65149 2.66466 9.00033 3.0191C9.34916 2.66466 9.75233 2.2949 10.1849 1.96792C10.8856 1.43828 11.7977 0.916656 12.7503 0.916656C14.1986 0.916656 15.3722 1.54255 16.1658 2.53239C16.9457 3.50505 17.3337 4.79273 17.3337 6.12499C17.3337 7.32791 16.7408 8.48232 15.9951 9.47657C15.2379 10.4862 14.2466 11.4317 13.2838 12.2339C12.3167 13.0398 11.3537 13.7217 10.6344 14.2012C10.2741 14.4414 9.97316 14.632 9.76124 14.7632C9.65524 14.8288 9.57133 14.8797 9.51332 14.9145C9.48424 14.9319 9.46174 14.9453 9.44608 14.9546L9.42774 14.9654L9.42266 14.9684L9.42107 14.9693C9.42091 14.9694 9.42024 14.9698 9.00033 14.25C8.58041 14.9698 8.58024 14.9697 8.58008 14.9696L8.57799 14.9683L8.57274 14.9653L8.55441 14.9545C8.53866 14.9452 8.51608 14.9317 8.48699 14.9142C8.42883 14.8793 8.34474 14.8283 8.23866 14.7624C8.02641 14.6307 7.72516 14.4392 7.36441 14.1974C6.64458 13.7148 5.6806 13.027 4.71268 12.2097C3.74888 11.3958 2.75698 10.4334 1.99968 9.39849C1.2517 8.37632 0.666992 7.19432 0.666992 5.95867C0.666992 4.6244 1.05648 3.36909 1.84874 2.43236ZM9.00033 14.25L8.58008 14.9696L9.00033 15.2147L9.42024 14.9698L9.00033 14.25ZM9.00074 13.2734C9.18791 13.1561 9.42966 13.0013 9.70999 12.8144C10.397 12.3564 11.3089 11.7102 12.2168 10.9536C13.1291 10.1933 14.0127 9.34191 14.6618 8.47657C15.3223 7.59574 15.667 6.79707 15.667 6.12499C15.667 5.10039 15.3671 4.20057 14.8655 3.57495C14.3777 2.9665 13.6762 2.58332 12.7503 2.58332C12.3617 2.58332 11.819 2.82196 11.19 3.29745C10.5892 3.75157 10.0304 4.32906 9.63282 4.79257L9.00033 5.52991L8.36783 4.79257C7.97024 4.32906 7.41141 3.75157 6.81069 3.29745C6.18169 2.82196 5.63892 2.58332 5.25033 2.58332C4.29896 2.58332 3.59766 2.94541 3.12128 3.50865C2.63209 4.08705 2.33366 4.93607 2.33366 5.95867C2.33366 6.68116 2.68645 7.51466 3.34472 8.41424C3.99367 9.30116 4.87677 10.1668 5.78797 10.9362C6.69505 11.7022 7.60608 12.3529 8.29249 12.813C8.57249 13.0007 8.81382 13.1559 9.00074 13.2734Z" fill="#C37DB1"/>
</svg>
