<svg width="78" height="66" viewBox="0 0 78 66" fill="none" xmlns="http://www.w3.org/2000/svg">
<path d="M84.4092 17.5806L21.0858 0.613162C17.4466 -0.361978 13.755 1.76933 12.6824 5.77253L0.590659 50.8995C-0.384481 54.5388 1.64931 58.5942 5.28858 59.5694L68.248 76.4393C71.8872 77.4144 75.5788 75.2831 76.6514 71.2799L88.7432 26.1529C90.1797 22.2473 88.0484 18.5557 84.4092 17.5806ZM82.1472 21.6552L43.3862 44.0339L21.0075 5.27283L82.1472 21.6552V21.6552ZM5.25033 50.9779L16.8545 7.67055L32.9368 34.9931L5.25033 50.9779V50.9779ZM7.64804 55.1308L34.9706 39.0485L40.5653 48.7388C41.0981 49.6617 42.5538 50.0517 43.8406 49.6164L53.0694 44.2882L68.6903 71.8771L7.55053 55.4948L7.64804 55.1308ZM72.9408 69.1155L57.3199 41.5265L84.6425 25.4442L72.9408 69.1155Z" fill="#AE5096"/>
</svg>
