<svg width="43" height="33" viewBox="0 0 43 33" fill="none" xmlns="http://www.w3.org/2000/svg">
<path d="M4.23528 9.94803L4.23519 9.94798L4.22878 9.95911C2.24668 13.4017 1.25 17.0487 1.25 20.8889C1.25 24.1399 2.13595 26.8175 3.97933 28.8387L3.99009 28.8505L4.00134 28.8618C5.90463 30.7782 8.20581 31.75 10.8666 31.75C13.2088 31.75 15.2384 30.935 16.9147 29.3175C18.5918 27.6992 19.447 25.7286 19.447 23.4444C19.447 21.2639 18.7282 19.4041 17.2754 17.9198C15.8248 16.4378 14.0175 15.6944 11.9031 15.6944C11.5466 15.6944 11.2242 15.7035 10.9384 15.7229C11.3605 14.3485 12.1701 12.8968 13.4028 11.3662C15.0441 9.42382 16.782 7.93091 18.6122 6.87129L19.5847 6.3083L18.6917 5.62621L13.1644 1.404L12.7318 1.07351L12.2835 1.38247C8.97161 3.66512 6.28685 6.52184 4.23528 9.94803ZM25.5385 9.94803L25.5384 9.94798L25.532 9.95911C23.5499 13.4017 22.5532 17.0487 22.5532 20.8889C22.5532 24.1399 23.4389 26.8174 25.2823 28.8387L25.2931 28.8505L25.3043 28.8618C27.2076 30.7782 29.509 31.75 32.1698 31.75C34.512 31.75 36.5416 30.935 38.2179 29.3175C39.8951 27.6992 40.75 25.7285 40.75 23.4444C40.75 21.2639 40.0311 19.4041 38.5784 17.9198C37.1278 16.4378 35.3205 15.6944 33.2061 15.6944C32.8495 15.6944 32.5272 15.7035 32.2414 15.7229C32.6636 14.3486 33.4733 12.8968 34.706 11.3662C36.3473 9.42379 38.085 7.93089 39.9152 6.87129L40.8876 6.3083L39.9947 5.62621L34.4674 1.404L34.0348 1.07351L33.5865 1.38247C30.2746 3.66513 27.59 6.52185 25.5385 9.94803Z" fill="#FFF9FD" stroke="#AE5096" stroke-width="1.5"/>
</svg>
