<svg width="26" height="26" viewBox="0 0 26 26" fill="none" xmlns="http://www.w3.org/2000/svg">
<g clip-path="url(#clip0_648_4436)">
<path d="M4.62109 6.09375V23.7148C4.62109 24.1356 4.96208 24.4766 5.38281 24.4766H14.5234V25.2383C14.5234 25.5192 14.6782 25.7772 14.9257 25.9099C15.1735 26.0424 15.474 26.028 15.7077 25.8721L17.5703 24.6303L19.433 25.8721C19.667 26.0282 19.9675 26.0423 20.2149 25.9099C20.4627 25.7772 20.6172 25.5192 20.6172 25.2383V24.4766H23.6641C24.0848 24.4766 24.4258 24.1356 24.4258 23.7148V3.04688C24.4258 1.36673 23.0591 0 21.3789 0H4.62109C2.94115 0 1.57422 1.36673 1.57422 3.04688C1.57422 4.72702 2.94115 6.09375 4.62109 6.09375ZM17.5703 19.8047C16.3103 19.8047 15.2852 18.7795 15.2852 17.5195C15.2852 16.2595 16.3103 15.2344 17.5703 15.2344C18.8303 15.2344 19.8555 16.2595 19.8555 17.5195C19.8555 18.7795 18.8303 19.8047 17.5703 19.8047ZM19.0938 23.815L17.9928 23.0811C17.7369 22.9105 17.4037 22.9105 17.1478 23.0811L16.0469 23.815V21.0092C16.5138 21.2139 17.0288 21.3281 17.5703 21.3281C18.1118 21.3281 18.6268 21.2137 19.0938 21.0092V23.815ZM21.3789 1.52344C22.219 1.52344 22.9023 2.2068 22.9023 3.04688V22.9531H20.6172V19.8021C21.0952 19.1656 21.3789 18.3751 21.3789 17.5195C21.3789 15.4194 19.6704 13.7109 17.5703 13.7109C15.4702 13.7109 13.7617 15.4194 13.7617 17.5195C13.7617 18.3751 14.0454 19.1656 14.5234 19.8021V22.9531H6.14453V6.09375H21.5892C22.0099 6.09375 22.3509 5.75276 22.3509 5.33203C22.3509 4.9113 22.0099 4.57031 21.5892 4.57031H21.3789C20.5388 4.57031 19.8555 3.88695 19.8555 3.04688C19.8555 2.2068 20.5388 1.52344 21.3789 1.52344ZM4.62109 1.52284H18.7409C18.481 1.97134 18.332 2.49225 18.332 3.04688C18.332 3.6015 18.481 4.12201 18.7409 4.57031H4.62109C3.78102 4.57031 3.09766 3.88695 3.09766 3.04688C3.09766 2.2068 3.78102 1.52284 4.62109 1.52284Z" fill="#AE5096"/>
<path d="M20.6172 7.61719H8.42969C8.00896 7.61719 7.66797 7.95818 7.66797 8.37891C7.66797 8.79964 8.00896 9.14062 8.42969 9.14062H20.6172C21.0379 9.14062 21.3789 8.79964 21.3789 8.37891C21.3789 7.95818 21.0379 7.61719 20.6172 7.61719Z" fill="#AE5096"/>
<path d="M20.6172 10.6641H8.42969C8.00896 10.6641 7.66797 11.0051 7.66797 11.4258C7.66797 11.8465 8.00896 12.1875 8.42969 12.1875H20.6172C21.0379 12.1875 21.3789 11.8465 21.3789 11.4258C21.3789 11.0051 21.0379 10.6641 20.6172 10.6641Z" fill="#AE5096"/>
<path d="M11.4766 13.7109H8.42969C8.00896 13.7109 7.66797 14.0519 7.66797 14.4727C7.66797 14.8934 8.00896 15.2344 8.42969 15.2344H11.4766C11.8973 15.2344 12.2383 14.8934 12.2383 14.4727C12.2383 14.0519 11.8973 13.7109 11.4766 13.7109Z" fill="#AE5096"/>
<path d="M11.4766 16.7578H8.42969C8.00896 16.7578 7.66797 17.0988 7.66797 17.5195C7.66797 17.9403 8.00896 18.2812 8.42969 18.2812H11.4766C11.8973 18.2812 12.2383 17.9403 12.2383 17.5195C12.2383 17.0988 11.8973 16.7578 11.4766 16.7578Z" fill="#AE5096"/>
</g>
<defs>
<clipPath id="clip0_648_4436">
<rect width="26" height="26" fill="white"/>
</clipPath>
</defs>
</svg>
