<svg width="64" height="73" viewBox="0 0 64 73" fill="none" xmlns="http://www.w3.org/2000/svg">
<path d="M42.6356 83.7676C38.5433 82.6711 24.12 77.1616 11.2509 55.6206C0.902814 36.9482 -1.33417 24.8353 2.97848 12.8326C3.38968 11.298 4.31241 9.90042 5.23515 8.50288C6.15788 7.10533 7.72922 5.33332 9.16349 4.07284L13.0551 1.82602C17.4582 -0.28374 22.5736 1.08692 24.9575 4.46699L32.4469 17.439C34.6937 21.3306 32.8115 26.3089 28.9199 28.5558L24.2426 31.6886C26.2029 41.2242 31.1946 49.8701 38.4725 56.3355L43.6613 53.3397C47.553 51.0929 52.6683 52.4635 54.4036 56.2181L61.893 69.1901C64.1398 73.0817 62.9063 77.6856 59.0146 79.9324L55.123 82.1792C53.3143 82.7911 51.5055 83.403 49.1853 83.8778C47.5136 83.9781 45.8419 84.0785 43.7958 83.5302C44.1702 84.1788 43.6587 84.0417 42.6356 83.7676V83.7676ZM18.6453 5.51695C17.6222 5.24282 16.9736 5.61729 16.325 5.99176L12.4334 8.23859C11.6477 9.12459 10.3505 9.87353 9.93931 11.4081C9.15364 12.2941 8.23091 13.6917 7.95678 14.7148C4.05533 25.1829 6.0549 36.1357 15.7911 52.9993C27.3997 73.106 40.2885 78.2043 43.8692 79.1638L44.8923 79.4379C45.9154 79.712 47.5871 79.6117 48.7472 79.3743C50.4189 79.274 51.579 79.0366 52.8762 78.2876L56.6307 76.5523C57.928 75.8034 58.4762 73.7572 57.7273 72.46L50.2379 59.488C49.81 58.8339 49.1561 58.3605 48.4011 58.1582C47.6462 57.9559 46.8432 58.0389 46.1456 58.3915L37.7137 63.2596L35.5673 61.0396C32.5348 58.034 28.6163 54.2428 24.8716 47.7567C21.1269 41.2707 19.8028 35.9816 19.2276 31.9896L18.3783 29.0207L26.8102 24.1526C28.1074 23.4037 28.6556 21.3575 27.9067 20.0603L20.4173 7.08829C20.0428 6.43969 19.6683 5.79108 18.6453 5.51695V5.51695Z" fill="#AE5096"/>
</svg>
