<svg width="16" height="16" viewBox="0 0 16 16" fill="none" xmlns="http://www.w3.org/2000/svg">
<path fill-rule="evenodd" clip-rule="evenodd" d="M0.680949 4.09079L0.681589 4.08375C0.742962 3.40685 1.02012 2.80707 1.51088 2.31872L2.45138 3.26385C2.18457 3.52935 2.04282 3.83633 2.00948 4.20415C1.96501 4.76004 2.0734 5.37124 2.35966 6.13179C2.82102 7.37076 3.5186 8.52683 4.55526 9.76856C5.81426 11.2676 7.3317 12.4484 9.06044 13.2809C9.69684 13.5824 10.5445 13.9364 11.4561 13.9944C11.5034 13.9972 11.5534 14 11.6006 14C12.0926 14 12.4733 13.8396 12.793 13.4966C12.9664 13.2901 13.1572 13.1058 13.3419 12.9274C13.3526 12.917 13.3632 12.9068 13.3738 12.8965C13.5044 12.772 13.6267 12.6531 13.7434 12.5286C14.0825 12.1774 14.0853 11.8179 13.7518 11.486L12.0759 9.82109C11.9675 9.70496 11.7952 9.57496 11.584 9.57496C11.4116 9.57496 11.2366 9.66069 11.0754 9.82109L10.0359 10.8554C9.9887 10.9025 9.84417 11.0435 9.62184 11.0435C9.5329 11.0435 9.44397 11.0214 9.35224 10.9744C9.3467 10.9716 9.34184 10.9688 9.33697 10.9661C9.3321 10.9633 9.32724 10.9606 9.32164 10.9578C9.22997 10.8997 9.1271 10.8472 9.01597 10.7918C8.9959 10.7816 8.97557 10.7714 8.9551 10.7611C8.8537 10.7101 8.7485 10.6572 8.6491 10.5927C7.6819 9.98149 6.8037 9.18776 5.9699 8.16449C5.50576 7.58376 5.20838 7.09696 4.99438 6.58535C4.993 6.5812 4.9916 6.57774 4.99022 6.57429C4.98882 6.57083 4.98744 6.56737 4.98604 6.56322C4.93046 6.39729 4.89433 6.1788 5.12501 5.94926L5.1389 5.93543C5.38557 5.71809 5.61086 5.49131 5.84771 5.25288C5.86705 5.23341 5.88646 5.21387 5.90598 5.19425C5.94906 5.15138 5.99213 5.10782 6.03521 5.06426C6.07829 5.0207 6.12137 4.97715 6.16444 4.93427C6.33676 4.76281 6.4257 4.58857 6.4257 4.41711C6.4257 4.24564 6.33676 4.07141 6.16444 3.89994L5.33623 3.07579C5.28794 3.02636 5.23966 2.97762 5.1917 2.92922C5.14306 2.88012 5.09478 2.83137 5.04719 2.78263C5.02206 2.75725 4.99716 2.73207 4.97246 2.70707C4.81143 2.54413 4.65834 2.38923 4.4969 2.24057C4.33848 2.08016 4.16617 1.99996 3.99664 1.99996C3.82432 1.99996 3.64645 2.08016 3.48526 2.23504L2.45138 3.26385L1.51088 2.31872L2.55306 1.28167L2.56148 1.27356C2.90337 0.945086 3.39632 0.666626 3.99664 0.666626C4.5964 0.666626 5.08213 0.946379 5.41963 1.27779C5.59895 1.44399 5.76946 1.61659 5.92322 1.77224C5.94742 1.79674 5.97121 1.82083 5.99455 1.84439L5.99792 1.8478L6.00128 1.85123C6.04454 1.89555 6.08904 1.94049 6.13788 1.98979L6.14027 1.9922C6.1853 2.03765 6.23398 2.08679 6.28324 2.13715L7.1049 2.95481C7.41737 3.26575 7.75904 3.75981 7.75904 4.41711C7.75904 5.0744 7.41737 5.56847 7.1049 5.8794C7.0663 5.91787 7.02697 5.95761 6.98324 6.00183L6.98164 6.00347C6.94037 6.04515 6.8951 6.09095 6.8491 6.13675C6.82937 6.15661 6.80944 6.17667 6.7893 6.19691C6.6825 6.3045 6.57054 6.41725 6.45328 6.53185C6.58961 6.76836 6.7665 7.02516 7.00757 7.32723C7.7615 8.25163 8.5331 8.94216 9.36137 9.46556L9.36777 9.46963L9.37417 9.47376C9.40084 9.49103 9.42557 9.50443 9.47697 9.53063L10.1349 8.87596C10.4576 8.55489 10.9515 8.24163 11.584 8.24163C12.3188 8.24163 12.8126 8.66283 13.0296 8.88909L14.6923 10.5409C15.0272 10.8742 15.3382 11.3716 15.3331 12.0106C15.3282 12.6334 15.0246 13.1185 14.7106 13.4465C14.5704 13.5956 14.4293 13.7324 14.2971 13.8584L14.2896 13.8657C14.0871 14.0614 13.9418 14.2019 13.8141 14.354L13.7919 14.3804L13.7684 14.4057C13.1822 15.0346 12.4408 15.3333 11.6006 15.3333C11.5114 15.3333 11.4267 15.3283 11.3817 15.3257L11.3714 15.3251C10.1938 15.2501 9.15444 14.8008 8.4897 14.4859L8.4819 14.4822C6.58061 13.5666 4.91301 12.2676 3.53428 10.6261L3.53172 10.623C2.4195 9.29076 1.63524 8.00636 1.11095 6.59924C0.783016 5.72736 0.6152 4.91271 0.680389 4.09783L0.680949 4.09079Z" fill="white"/>
</svg>
