<svg width="16" height="22" viewBox="0 0 16 22" fill="none" xmlns="http://www.w3.org/2000/svg">
<path d="M12.9608 0H3.03929C1.79346 0 0.777832 0.966797 0.777832 2.15273V19.8516C0.777832 21.0375 1.79346 22.0043 3.03929 22.0043H12.9653C14.2112 22.0043 15.2268 21.0375 15.2268 19.8516V2.15273C15.2223 0.966797 14.2067 0 12.9608 0ZM5.40005 1.28906H10.5414V1.93789H5.40005V1.28906ZM12.9608 20.7109H3.03929C2.54276 20.7109 2.13651 20.3242 2.13651 19.8516V2.15273C2.13651 1.68008 2.54276 1.29336 3.03929 1.29336H4.0504V2.10547C4.0504 2.72852 4.58304 3.23555 5.23755 3.23555H10.7219C11.3764 3.23555 11.9091 2.72852 11.9091 2.10547V1.28906H12.9698C13.4664 1.28906 13.8726 1.67578 13.8726 2.14844V19.8473C13.8681 20.3242 13.4619 20.7109 12.9608 20.7109Z" fill="#2B2D32"/>
</svg>
