<svg width="20" height="24" viewBox="0 0 20 24" fill="none" xmlns="http://www.w3.org/2000/svg">
<path fill-rule="evenodd" clip-rule="evenodd" d="M5.3028 4.89398C5.3028 2.24247 7.39051 0.333374 10.0002 0.333374C12.6098 0.333374 14.6975 2.34853 14.6975 4.89398C14.6975 7.43944 13.1317 10.9394 10.0002 10.9394C6.86859 10.9394 5.3028 7.5455 5.3028 4.89398ZM12.6098 4.89398C12.6098 3.30307 11.2528 2.45459 10.0002 2.45459C8.74753 2.45459 7.39051 3.30307 7.39051 4.89398C7.39051 6.48489 8.32999 8.81822 10.0002 8.81822C11.6703 8.81822 12.6098 6.48489 12.6098 4.89398ZM10.0002 13.591C12.1923 13.591 13.2361 12.5303 13.2361 12.5303C17.0984 12.5303 19.9168 15.394 19.9168 22.2879C19.9168 22.2879 16.3677 23.6667 10.0002 23.6667C3.63262 23.6667 0.0834961 22.2879 0.0834961 22.2879C0.0834961 15.394 2.90192 12.5303 6.7642 12.5303C6.7642 12.5303 7.80806 13.591 10.0002 13.591ZM17.7247 20.697C17.4116 16.9849 16.1589 14.9697 13.7581 14.6516C13.0274 15.1819 11.7747 15.7122 10.0002 15.7122C8.32999 15.7122 6.97297 15.0758 6.24227 14.6516C3.84139 14.9697 2.58876 16.9849 2.2756 20.697C3.73701 21.1213 6.34665 21.5455 10.0002 21.5455C13.5493 21.5455 16.2633 21.0152 17.7247 20.697Z" fill="#262931"/>
</svg>
