<svg width="21" height="21" viewBox="0 0 21 21" fill="none" xmlns="http://www.w3.org/2000/svg">
<path fill-rule="evenodd" clip-rule="evenodd" d="M14.7503 14.8369C11.9148 17.6724 7.31762 17.6724 4.48217 14.8369C1.64671 12.0015 1.64671 7.40431 4.48216 4.56885C7.31762 1.73339 11.9148 1.73339 14.7503 4.56885C17.5857 7.40431 17.5857 12.0015 14.7503 14.8369ZM16.33 16.4166C12.6221 20.1246 6.61036 20.1246 2.90246 16.4166C-0.805445 12.7087 -0.805446 6.69705 2.90246 2.98914C6.61036 -0.71876 12.6221 -0.71876 16.33 2.98914C20.0379 6.69705 20.0379 12.7087 16.33 16.4166Z" fill="#C37DB1"/>
<path fill-rule="evenodd" clip-rule="evenodd" d="M20.5261 20.6127C20.9895 20.1493 20.9895 19.3978 20.5261 18.9343L17.1692 15.5774C16.7057 15.1139 15.9542 15.1139 15.4907 15.5774C15.0273 16.0409 15.0273 16.7924 15.4907 17.2559L18.8476 20.6127C19.3111 21.0762 20.0626 21.0762 20.5261 20.6127Z" fill="#C37DB1"/>
</svg>
